# Blender v2.78 (sub 0) OBJ File: 'sauna_stove.blend'
# www.blender.org
mtllib sauna_stove.mtl
o Cube
v 0.500000 -0.500000 -0.500000
v 0.500000 0.500000 -0.500000
v 0.500000 -0.500000 0.500000
v 0.500000 0.500000 0.500000
v -0.500000 -0.500000 -0.500000
v -0.500000 0.500000 -0.500000
v -0.500000 -0.500000 0.500000
v -0.500000 0.500000 0.500000
v -0.400000 0.600000 0.400000
v -0.400000 0.500000 0.400000
v -0.400000 0.600000 -0.400000
v -0.400000 0.500000 -0.400000
v 0.400000 0.600000 0.400000
v 0.400000 0.500000 0.400000
v 0.400000 0.600000 -0.400000
v 0.400000 0.500000 -0.400000
vt 0.0001 0.5000
vt 0.2500 0.5000
vt 0.2500 0.7499
vt 0.0001 0.7499
vt 0.2500 0.9998
vt 0.4999 0.7499
vt 0.4999 0.9998
vt 0.7498 0.7499
vt 0.4999 0.5000
vt 0.7498 0.5000
vt 0.4999 0.2501
vt 0.2500 0.2501
vt 0.2500 0.0002
vt 0.4999 0.0002
vt 0.7500 0.0252
vt 0.7750 0.0252
vt 0.7750 0.2251
vt 0.7500 0.2251
vt 0.9749 0.0002
vt 0.9749 0.0252
vt 0.7750 0.0002
vt 0.9999 0.2251
vt 0.9749 0.2251
vt 0.9999 0.0252
vt 0.7750 0.2501
vt 0.9749 0.2501
vn 1.0000 0.0000 0.0000
vn -0.0000 0.0000 1.0000
vn -1.0000 0.0000 -0.0000
vn 0.0000 0.0000 -1.0000
vn 0.0000 -1.0000 0.0000
vn 0.0000 1.0000 0.0000
usemtl None
s off
f 1/1/1 2/2/1 4/3/1 3/4/1
f 3/5/2 4/3/2 8/6/2 7/7/2
f 7/8/3 8/6/3 6/9/3 5/10/3
f 5/11/4 6/9/4 2/2/4 1/12/4
f 3/13/5 7/14/5 5/11/5 1/12/5
f 8/6/6 4/3/6 2/2/6 6/9/6
f 14/15/2 13/16/2 9/17/2 10/18/2
f 16/19/1 15/20/1 13/16/1 14/21/1
f 12/22/4 11/23/4 15/20/4 16/24/4
f 10/25/3 9/17/3 11/23/3 12/26/3
f 9/17/6 13/16/6 15/20/6 11/23/6
